<svg xmlns="http://www.w3.org/2000/svg" xmlns:xlink="http://www.w3.org/1999/xlink" width="500" zoomAndPan="magnify" viewBox="0 0 375 374.999991" height="500" preserveAspectRatio="xMidYMid meet" version="1.0"><defs><g/></defs><g fill="#fd7f32" fill-opacity="1"><g transform="translate(130.343455, 189.188308)"><g><path d="M 13.550781 -0.488281 C 21.90625 0.8125 32.292969 0.0820312 36.023438 -8.84375 C 37.726562 -12.980469 37.566406 -18.011719 35.699219 -21.988281 C 33.507812 -26.773438 29.207031 -28.640625 25.476562 -31.886719 C 15.496094 -40.324219 25.964844 -48.355469 34.726562 -51.113281 C 39.675781 -52.738281 37.972656 -58.011719 34.644531 -60.121094 C 30.667969 -62.636719 24.988281 -62.148438 20.6875 -60.851562 C 11.847656 -58.335938 5.113281 -51.113281 3.8125 -41.867188 C 2.515625 -32.535156 6.570312 -25.882812 14.765625 -21.90625 C 17.769531 -20.445312 23.125 -17.605469 20.527344 -13.386719 C 17.445312 -8.277344 11.441406 -13.304688 7.464844 -13.304688 C 2.757812 -13.386719 -0.730469 -9.574219 2.351562 -5.113281 C 4.625 -1.867188 9.898438 -1.136719 13.550781 -0.488281 Z M 13.550781 -0.488281 "/></g></g></g><g fill="#fd7f32" fill-opacity="1"><g transform="translate(166.932383, 189.188308)"><g><path d="M 11.519531 -1.703125 C 18.09375 1.703125 29.859375 -0.242188 34.644531 -5.921875 C 40.730469 -13.0625 40.242188 -27.34375 40 -36.1875 C 40.082031 -39.59375 40.160156 -44.300781 37.320312 -46.734375 C 33.753906 -49.734375 29.777344 -47.140625 28.558594 -43.246094 C 27.261719 -38.945312 28.964844 -33.023438 28.964844 -28.476562 C 28.964844 -24.015625 29.046875 -18.984375 27.019531 -14.847656 C 24.746094 -10.304688 20.769531 -11.519531 18.984375 -15.984375 C 17.121094 -20.769531 17.851562 -26.855469 17.929688 -31.886719 C 18.09375 -37.726562 19.472656 -50.871094 10.464844 -50.953125 C -0.972656 -50.953125 1.136719 -33.914062 1.945312 -26.855469 C 3.003906 -18.335938 2.675781 -6.246094 11.519531 -1.703125 Z M 11.519531 -1.703125 "/></g></g></g><g fill="#fd7f32" fill-opacity="1"><g transform="translate(205.874056, 189.188308)"><g><path d="M 17.6875 -0.164062 C 24.582031 -0.890625 31.96875 -3.164062 36.1875 -9.007812 C 40.648438 -15.253906 40.730469 -25.882812 34.96875 -31.398438 C 39.835938 -35.699219 44.300781 -43.40625 41.621094 -50.058594 C 38.457031 -58.09375 28.316406 -58.171875 21.09375 -57.929688 C 15.660156 -57.847656 6.246094 -59.066406 2.921875 -53.710938 C 0.242188 -49.25 1.460938 -42.515625 1.621094 -37.566406 C 1.867188 -28.234375 0.730469 -17.605469 2.921875 -8.519531 C 4.625 -0.972656 10.710938 0.566406 17.6875 -0.164062 Z M 14.199219 -37.242188 C 13.792969 -37.566406 14.035156 -42.351562 14.199219 -42.675781 C 15.578125 -45.839844 28.152344 -44.054688 25.800781 -40.082031 C 24.503906 -37.890625 21.339844 -37.566406 19.066406 -37.320312 C 18.578125 -37.242188 14.683594 -36.835938 14.199219 -37.242188 Z M 13.710938 -12.25 C 13.792969 -14.523438 12.820312 -19.796875 13.792969 -21.582031 C 14.683594 -23.203125 16.144531 -23.285156 18.578125 -23.367188 C 21.746094 -23.449219 26.367188 -22.636719 25.3125 -18.335938 C 24.179688 -13.710938 17.605469 -12.65625 13.710938 -12.25 Z M 13.710938 -12.25 "/></g></g></g><g fill="#ffbd59" fill-opacity="1"><g transform="translate(127.905139, 186.749988)"><g><path d="M 13.550781 -0.488281 C 21.90625 0.8125 32.292969 0.0820312 36.023438 -8.84375 C 37.726562 -12.980469 37.566406 -18.011719 35.699219 -21.988281 C 33.507812 -26.773438 29.207031 -28.640625 25.476562 -31.886719 C 15.496094 -40.324219 25.964844 -48.355469 34.726562 -51.113281 C 39.675781 -52.738281 37.972656 -58.011719 34.644531 -60.121094 C 30.667969 -62.636719 24.988281 -62.148438 20.6875 -60.851562 C 11.847656 -58.335938 5.113281 -51.113281 3.8125 -41.867188 C 2.515625 -32.535156 6.570312 -25.882812 14.765625 -21.90625 C 17.769531 -20.445312 23.125 -17.605469 20.527344 -13.386719 C 17.445312 -8.277344 11.441406 -13.304688 7.464844 -13.304688 C 2.757812 -13.386719 -0.730469 -9.574219 2.351562 -5.113281 C 4.625 -1.867188 9.898438 -1.136719 13.550781 -0.488281 Z M 13.550781 -0.488281 "/></g></g></g><g fill="#ffbd59" fill-opacity="1"><g transform="translate(164.494066, 186.749988)"><g><path d="M 11.519531 -1.703125 C 18.09375 1.703125 29.859375 -0.242188 34.644531 -5.921875 C 40.730469 -13.0625 40.242188 -27.34375 40 -36.1875 C 40.082031 -39.59375 40.160156 -44.300781 37.320312 -46.734375 C 33.753906 -49.734375 29.777344 -47.140625 28.558594 -43.246094 C 27.261719 -38.945312 28.964844 -33.023438 28.964844 -28.476562 C 28.964844 -24.015625 29.046875 -18.984375 27.019531 -14.847656 C 24.746094 -10.304688 20.769531 -11.519531 18.984375 -15.984375 C 17.121094 -20.769531 17.851562 -26.855469 17.929688 -31.886719 C 18.09375 -37.726562 19.472656 -50.871094 10.464844 -50.953125 C -0.972656 -50.953125 1.136719 -33.914062 1.945312 -26.855469 C 3.003906 -18.335938 2.675781 -6.246094 11.519531 -1.703125 Z M 11.519531 -1.703125 "/></g></g></g><g fill="#ffbd59" fill-opacity="1"><g transform="translate(203.435739, 186.749988)"><g><path d="M 17.6875 -0.164062 C 24.582031 -0.890625 31.96875 -3.164062 36.1875 -9.007812 C 40.648438 -15.253906 40.730469 -25.882812 34.96875 -31.398438 C 39.835938 -35.699219 44.300781 -43.40625 41.621094 -50.058594 C 38.457031 -58.09375 28.316406 -58.171875 21.09375 -57.929688 C 15.660156 -57.847656 6.246094 -59.066406 2.921875 -53.710938 C 0.242188 -49.25 1.460938 -42.515625 1.621094 -37.566406 C 1.867188 -28.234375 0.730469 -17.605469 2.921875 -8.519531 C 4.625 -0.972656 10.710938 0.566406 17.6875 -0.164062 Z M 14.199219 -37.242188 C 13.792969 -37.566406 14.035156 -42.351562 14.199219 -42.675781 C 15.578125 -45.839844 28.152344 -44.054688 25.800781 -40.082031 C 24.503906 -37.890625 21.339844 -37.566406 19.066406 -37.320312 C 18.578125 -37.242188 14.683594 -36.835938 14.199219 -37.242188 Z M 13.710938 -12.25 C 13.792969 -14.523438 12.820312 -19.796875 13.792969 -21.582031 C 14.683594 -23.203125 16.144531 -23.285156 18.578125 -23.367188 C 21.746094 -23.449219 26.367188 -22.636719 25.3125 -18.335938 C 24.179688 -13.710938 17.605469 -12.65625 13.710938 -12.25 Z M 13.710938 -12.25 "/></g></g></g><g fill="#fd7f32" fill-opacity="1"><g transform="translate(65.034866, 233.438305)"><g><path d="M 20.121094 0 C 33.101562 -0.242188 26.53125 -32.292969 25.558594 -38.78125 C 28.804688 -38.78125 34.96875 -38.132812 37.160156 -40.972656 C 39.429688 -43.8125 37.402344 -47.707031 34.480469 -49.085938 C 30.183594 -51.113281 24.582031 -50.386719 19.960938 -50.628906 C 15.820312 -50.871094 8.4375 -52.898438 4.707031 -51.195312 C 1.460938 -49.734375 0.324219 -45.839844 1.867188 -42.757812 C 4.136719 -37.972656 10.386719 -38.621094 14.765625 -38.863281 C 15.089844 -29.695312 14.117188 -20.769531 13.792969 -11.683594 C 13.550781 -7.058594 13.792969 0.0820312 20.121094 0 Z M 20.121094 0 "/></g></g></g><g fill="#fd7f32" fill-opacity="1"><g transform="translate(100.731372, 233.438305)"><g><path d="M 43.730469 -2.757812 C 50.546875 -9.492188 43.082031 -21.988281 39.105469 -27.992188 C 48.273438 -36.511719 50.386719 -49.898438 38.945312 -57.363281 C 30.914062 -62.636719 6.085938 -67.097656 3.894531 -53.550781 C 2.675781 -46.328125 3.570312 -38.214844 3.082031 -30.75 C 2.597656 -23.933594 -0.242188 -14.359375 2.191406 -7.707031 C 4.460938 -1.621094 11.359375 -0.0820312 15.578125 -5.191406 C 17.6875 -7.789062 18.417969 -11.195312 19.148438 -14.359375 C 19.390625 -15.414062 19.308594 -18.253906 20.039062 -19.066406 C 20.933594 -20.039062 25.964844 -20.445312 27.261719 -20.851562 C 28.398438 -14.847656 32.941406 7.789062 43.730469 -2.757812 Z M 18.742188 -30.992188 C 18.417969 -34.238281 16.46875 -40.324219 17.445312 -43.324219 C 18.09375 -45.515625 19.632812 -45.4375 22.070312 -45.515625 C 28.074219 -45.839844 34.726562 -40.40625 27.667969 -35.457031 C 24.910156 -33.507812 21.824219 -32.210938 18.742188 -30.992188 Z M 18.742188 -30.992188 "/></g></g></g><g fill="#fd7f32" fill-opacity="1"><g transform="translate(146.244483, 233.438305)"><g><path d="M 6.246094 -0.488281 C 9.167969 0.40625 12.820312 0.164062 14.765625 -2.273438 C 16.875 -4.867188 16.226562 -11.277344 18.578125 -13.226562 C 19.878906 -14.199219 31.238281 -13.304688 31.644531 -12.980469 C 33.832031 -11.117188 34.238281 -5.921875 35.863281 -3.570312 C 38.132812 -0.242188 41.136719 -0.0820312 44.300781 -2.597656 C 47.464844 -5.191406 47.140625 -7.871094 45.839844 -11.441406 L 36.347656 -38.132812 C 34.078125 -44.625 32.535156 -54.605469 24.015625 -54.441406 C 16.46875 -54.199219 12.738281 -49.65625 10.546875 -43 C 7.953125 -35.132812 5.515625 -27.179688 3.570312 -19.148438 C 2.109375 -13.144531 -2.109375 -2.921875 6.246094 -0.488281 Z M 22.3125 -24.746094 C 23.042969 -27.179688 23.855469 -29.613281 24.582031 -32.046875 C 25.234375 -29.859375 25.964844 -27.75 26.695312 -25.558594 C 25.234375 -25.3125 23.773438 -24.988281 22.3125 -24.746094 Z M 22.3125 -24.746094 "/></g></g></g><g fill="#fd7f32" fill-opacity="1"><g transform="translate(191.838737, 233.438305)"><g><path d="M 18.417969 -1.054688 C 25.234375 1.054688 34.726562 0.648438 35.699219 -8.03125 C 36.835938 -17.929688 27.503906 -15.089844 21.09375 -17.851562 C 12.65625 -21.417969 16.308594 -29.53125 21.582031 -34.5625 C 27.828125 -36.59375 37.648438 -38.375 37.320312 -46.894531 C 36.917969 -55.660156 27.019531 -53.710938 21.257812 -51.765625 C 6.734375 -46.894531 -2.675781 -30.832031 2.757812 -15.984375 C 5.4375 -8.84375 11.195312 -3.40625 18.417969 -1.054688 Z M 18.417969 -1.054688 "/></g></g></g><g fill="#fd7f32" fill-opacity="1"><g transform="translate(227.940884, 233.438305)"><g><path d="M 34.078125 -2.191406 C 41.703125 -8.355469 28.804688 -25.476562 22.800781 -28.964844 C 27.261719 -31.5625 44.136719 -39.105469 39.351562 -46.976562 C 34.808594 -54.605469 15.253906 -34.5625 12.820312 -31.96875 C 14.117188 -36.59375 17.445312 -56.0625 6.492188 -52.820312 C 1.785156 -51.441406 1.945312 -45.4375 1.945312 -41.542969 C 2.027344 -36.1875 1.945312 -30.75 1.867188 -25.394531 C 1.785156 -20.445312 -1.703125 -0.242188 8.113281 -2.273438 C 11.847656 -3.003906 12.902344 -7.871094 13.304688 -10.953125 C 13.550781 -13.0625 12.007812 -22.636719 12.980469 -23.203125 C 16.226562 -16.144531 22.230469 7.222656 34.078125 -2.191406 Z M 34.078125 -2.191406 "/></g></g></g><g fill="#fd7f32" fill-opacity="1"><g transform="translate(266.882563, 233.438305)"><g><path d="M 43.730469 -2.757812 C 50.546875 -9.492188 43.082031 -21.988281 39.105469 -27.992188 C 48.273438 -36.511719 50.386719 -49.898438 38.945312 -57.363281 C 30.914062 -62.636719 6.085938 -67.097656 3.894531 -53.550781 C 2.675781 -46.328125 3.570312 -38.214844 3.082031 -30.75 C 2.597656 -23.933594 -0.242188 -14.359375 2.191406 -7.707031 C 4.460938 -1.621094 11.359375 -0.0820312 15.578125 -5.191406 C 17.6875 -7.789062 18.417969 -11.195312 19.148438 -14.359375 C 19.390625 -15.414062 19.308594 -18.253906 20.039062 -19.066406 C 20.933594 -20.039062 25.964844 -20.445312 27.261719 -20.851562 C 28.398438 -14.847656 32.941406 7.789062 43.730469 -2.757812 Z M 18.742188 -30.992188 C 18.417969 -34.238281 16.46875 -40.324219 17.445312 -43.324219 C 18.09375 -45.515625 19.632812 -45.4375 22.070312 -45.515625 C 28.074219 -45.839844 34.726562 -40.40625 27.667969 -35.457031 C 24.910156 -33.507812 21.824219 -32.210938 18.742188 -30.992188 Z M 18.742188 -30.992188 "/></g></g></g><g fill="#ffbd59" fill-opacity="1"><g transform="translate(62.596549, 230.999985)"><g><path d="M 20.121094 0 C 33.101562 -0.242188 26.53125 -32.292969 25.558594 -38.78125 C 28.804688 -38.78125 34.96875 -38.132812 37.160156 -40.972656 C 39.429688 -43.8125 37.402344 -47.707031 34.480469 -49.085938 C 30.183594 -51.113281 24.582031 -50.386719 19.960938 -50.628906 C 15.820312 -50.871094 8.4375 -52.898438 4.707031 -51.195312 C 1.460938 -49.734375 0.324219 -45.839844 1.867188 -42.757812 C 4.136719 -37.972656 10.386719 -38.621094 14.765625 -38.863281 C 15.089844 -29.695312 14.117188 -20.769531 13.792969 -11.683594 C 13.550781 -7.058594 13.792969 0.0820312 20.121094 0 Z M 20.121094 0 "/></g></g></g><g fill="#ffbd59" fill-opacity="1"><g transform="translate(98.293056, 230.999985)"><g><path d="M 43.730469 -2.757812 C 50.546875 -9.492188 43.082031 -21.988281 39.105469 -27.992188 C 48.273438 -36.511719 50.386719 -49.898438 38.945312 -57.363281 C 30.914062 -62.636719 6.085938 -67.097656 3.894531 -53.550781 C 2.675781 -46.328125 3.570312 -38.214844 3.082031 -30.75 C 2.597656 -23.933594 -0.242188 -14.359375 2.191406 -7.707031 C 4.460938 -1.621094 11.359375 -0.0820312 15.578125 -5.191406 C 17.6875 -7.789062 18.417969 -11.195312 19.148438 -14.359375 C 19.390625 -15.414062 19.308594 -18.253906 20.039062 -19.066406 C 20.933594 -20.039062 25.964844 -20.445312 27.261719 -20.851562 C 28.398438 -14.847656 32.941406 7.789062 43.730469 -2.757812 Z M 18.742188 -30.992188 C 18.417969 -34.238281 16.46875 -40.324219 17.445312 -43.324219 C 18.09375 -45.515625 19.632812 -45.4375 22.070312 -45.515625 C 28.074219 -45.839844 34.726562 -40.40625 27.667969 -35.457031 C 24.910156 -33.507812 21.824219 -32.210938 18.742188 -30.992188 Z M 18.742188 -30.992188 "/></g></g></g><g fill="#ffbd59" fill-opacity="1"><g transform="translate(143.806166, 230.999985)"><g><path d="M 6.246094 -0.488281 C 9.167969 0.40625 12.820312 0.164062 14.765625 -2.273438 C 16.875 -4.867188 16.226562 -11.277344 18.578125 -13.226562 C 19.878906 -14.199219 31.238281 -13.304688 31.644531 -12.980469 C 33.832031 -11.117188 34.238281 -5.921875 35.863281 -3.570312 C 38.132812 -0.242188 41.136719 -0.0820312 44.300781 -2.597656 C 47.464844 -5.191406 47.140625 -7.871094 45.839844 -11.441406 L 36.347656 -38.132812 C 34.078125 -44.625 32.535156 -54.605469 24.015625 -54.441406 C 16.46875 -54.199219 12.738281 -49.65625 10.546875 -43 C 7.953125 -35.132812 5.515625 -27.179688 3.570312 -19.148438 C 2.109375 -13.144531 -2.109375 -2.921875 6.246094 -0.488281 Z M 22.3125 -24.746094 C 23.042969 -27.179688 23.855469 -29.613281 24.582031 -32.046875 C 25.234375 -29.859375 25.964844 -27.75 26.695312 -25.558594 C 25.234375 -25.3125 23.773438 -24.988281 22.3125 -24.746094 Z M 22.3125 -24.746094 "/></g></g></g><g fill="#ffbd59" fill-opacity="1"><g transform="translate(189.40042, 230.999985)"><g><path d="M 18.417969 -1.054688 C 25.234375 1.054688 34.726562 0.648438 35.699219 -8.03125 C 36.835938 -17.929688 27.503906 -15.089844 21.09375 -17.851562 C 12.65625 -21.417969 16.308594 -29.53125 21.582031 -34.5625 C 27.828125 -36.59375 37.648438 -38.375 37.320312 -46.894531 C 36.917969 -55.660156 27.019531 -53.710938 21.257812 -51.765625 C 6.734375 -46.894531 -2.675781 -30.832031 2.757812 -15.984375 C 5.4375 -8.84375 11.195312 -3.40625 18.417969 -1.054688 Z M 18.417969 -1.054688 "/></g></g></g><g fill="#ffbd59" fill-opacity="1"><g transform="translate(225.502568, 230.999985)"><g><path d="M 34.078125 -2.191406 C 41.703125 -8.355469 28.804688 -25.476562 22.800781 -28.964844 C 27.261719 -31.5625 44.136719 -39.105469 39.351562 -46.976562 C 34.808594 -54.605469 15.253906 -34.5625 12.820312 -31.96875 C 14.117188 -36.59375 17.445312 -56.0625 6.492188 -52.820312 C 1.785156 -51.441406 1.945312 -45.4375 1.945312 -41.542969 C 2.027344 -36.1875 1.945312 -30.75 1.867188 -25.394531 C 1.785156 -20.445312 -1.703125 -0.242188 8.113281 -2.273438 C 11.847656 -3.003906 12.902344 -7.871094 13.304688 -10.953125 C 13.550781 -13.0625 12.007812 -22.636719 12.980469 -23.203125 C 16.226562 -16.144531 22.230469 7.222656 34.078125 -2.191406 Z M 34.078125 -2.191406 "/></g></g></g><g fill="#ffbd59" fill-opacity="1"><g transform="translate(264.444246, 230.999985)"><g><path d="M 43.730469 -2.757812 C 50.546875 -9.492188 43.082031 -21.988281 39.105469 -27.992188 C 48.273438 -36.511719 50.386719 -49.898438 38.945312 -57.363281 C 30.914062 -62.636719 6.085938 -67.097656 3.894531 -53.550781 C 2.675781 -46.328125 3.570312 -38.214844 3.082031 -30.75 C 2.597656 -23.933594 -0.242188 -14.359375 2.191406 -7.707031 C 4.460938 -1.621094 11.359375 -0.0820312 15.578125 -5.191406 C 17.6875 -7.789062 18.417969 -11.195312 19.148438 -14.359375 C 19.390625 -15.414062 19.308594 -18.253906 20.039062 -19.066406 C 20.933594 -20.039062 25.964844 -20.445312 27.261719 -20.851562 C 28.398438 -14.847656 32.941406 7.789062 43.730469 -2.757812 Z M 18.742188 -30.992188 C 18.417969 -34.238281 16.46875 -40.324219 17.445312 -43.324219 C 18.09375 -45.515625 19.632812 -45.4375 22.070312 -45.515625 C 28.074219 -45.839844 34.726562 -40.40625 27.667969 -35.457031 C 24.910156 -33.507812 21.824219 -32.210938 18.742188 -30.992188 Z M 18.742188 -30.992188 "/></g></g></g><g fill="#fd7f32" fill-opacity="1"><g transform="translate(313.407641, 241.853216)"><g><path d="M 1.621094 -2.351562 C 4.21875 3.894531 13.957031 -3.894531 9.734375 -7.871094 C 6.492188 -12.738281 -0.40625 -7.140625 1.621094 -2.351562 Z M 1.621094 -2.351562 "/></g></g></g><g fill="#ffbd59" fill-opacity="1"><g transform="translate(310.96932, 239.414895)"><g><path d="M 1.621094 -2.351562 C 4.21875 3.894531 13.957031 -3.894531 9.734375 -7.871094 C 6.492188 -12.738281 -0.40625 -7.140625 1.621094 -2.351562 Z M 1.621094 -2.351562 "/></g></g></g><g fill="#ffffff" fill-opacity="1"><g transform="translate(148.462452, 262.855324)"><g><path d="M 9.9375 -3.984375 L 3.546875 -3.984375 C 3.546875 -3.359375 3.742188 -2.894531 4.140625 -2.59375 C 4.546875 -2.300781 4.984375 -2.15625 5.453125 -2.15625 C 5.941406 -2.15625 6.328125 -2.222656 6.609375 -2.359375 C 6.898438 -2.492188 7.226562 -2.753906 7.59375 -3.140625 L 9.796875 -2.046875 C 8.878906 -0.515625 7.359375 0.25 5.234375 0.25 C 3.910156 0.25 2.769531 -0.203125 1.8125 -1.109375 C 0.863281 -2.015625 0.390625 -3.109375 0.390625 -4.390625 C 0.390625 -5.671875 0.863281 -6.769531 1.8125 -7.6875 C 2.769531 -8.601562 3.910156 -9.0625 5.234375 -9.0625 C 6.628906 -9.0625 7.765625 -8.65625 8.640625 -7.84375 C 9.515625 -7.039062 9.953125 -5.890625 9.953125 -4.390625 C 9.953125 -4.179688 9.945312 -4.046875 9.9375 -3.984375 Z M 3.640625 -5.65625 L 6.984375 -5.65625 C 6.910156 -6.113281 6.726562 -6.460938 6.4375 -6.703125 C 6.144531 -6.953125 5.769531 -7.078125 5.3125 -7.078125 C 4.8125 -7.078125 4.410156 -6.945312 4.109375 -6.6875 C 3.816406 -6.425781 3.660156 -6.082031 3.640625 -5.65625 Z M 3.640625 -5.65625 "/></g></g></g><g fill="#ffffff" fill-opacity="1"><g transform="translate(157.949644, 262.855324)"><g><path d="M 4.859375 -9.0625 C 5.359375 -9.0625 5.851562 -9.003906 6.34375 -8.890625 C 6.832031 -8.773438 7.203125 -8.660156 7.453125 -8.546875 L 7.8125 -8.375 L 6.8125 -6.375 C 6.125 -6.75 5.472656 -6.9375 4.859375 -6.9375 C 4.515625 -6.9375 4.269531 -6.894531 4.125 -6.8125 C 3.976562 -6.738281 3.90625 -6.601562 3.90625 -6.40625 C 3.90625 -6.351562 3.910156 -6.300781 3.921875 -6.25 C 3.941406 -6.207031 3.96875 -6.164062 4 -6.125 C 4.03125 -6.09375 4.0625 -6.0625 4.09375 -6.03125 C 4.125 -6 4.171875 -5.96875 4.234375 -5.9375 C 4.304688 -5.90625 4.359375 -5.878906 4.390625 -5.859375 C 4.429688 -5.835938 4.5 -5.8125 4.59375 -5.78125 C 4.6875 -5.75 4.753906 -5.722656 4.796875 -5.703125 C 4.847656 -5.679688 4.925781 -5.65625 5.03125 -5.625 C 5.144531 -5.59375 5.226562 -5.570312 5.28125 -5.5625 C 5.632812 -5.457031 5.941406 -5.34375 6.203125 -5.21875 C 6.472656 -5.09375 6.753906 -4.921875 7.046875 -4.703125 C 7.335938 -4.484375 7.5625 -4.207031 7.71875 -3.875 C 7.875 -3.539062 7.953125 -3.164062 7.953125 -2.75 C 7.953125 -0.75 6.566406 0.25 3.796875 0.25 C 3.160156 0.25 2.5625 0.15625 2 -0.03125 C 1.4375 -0.226562 1.023438 -0.425781 0.765625 -0.625 L 0.390625 -0.921875 L 1.625 -3 C 1.71875 -2.914062 1.835938 -2.820312 1.984375 -2.71875 C 2.140625 -2.613281 2.410156 -2.460938 2.796875 -2.265625 C 3.179688 -2.078125 3.519531 -1.984375 3.8125 -1.984375 C 4.4375 -1.984375 4.75 -2.195312 4.75 -2.625 C 4.75 -2.820312 4.664062 -2.972656 4.5 -3.078125 C 4.34375 -3.191406 4.070312 -3.316406 3.6875 -3.453125 C 3.3125 -3.585938 3.015625 -3.710938 2.796875 -3.828125 C 2.242188 -4.109375 1.804688 -4.425781 1.484375 -4.78125 C 1.171875 -5.144531 1.015625 -5.628906 1.015625 -6.234375 C 1.015625 -7.117188 1.359375 -7.8125 2.046875 -8.3125 C 2.742188 -8.8125 3.679688 -9.0625 4.859375 -9.0625 Z M 4.859375 -9.0625 "/></g></g></g><g fill="#ffffff" fill-opacity="1"><g transform="translate(165.532482, 262.855324)"><g><path d="M 1.546875 -8.796875 L 1.546875 -12.078125 L 4.578125 -12.078125 L 4.578125 -8.796875 L 6.4375 -8.796875 L 6.4375 -6.484375 L 4.578125 -6.484375 L 4.578125 -3.6875 C 4.578125 -2.875 4.804688 -2.46875 5.265625 -2.46875 C 5.378906 -2.46875 5.5 -2.488281 5.625 -2.53125 C 5.75 -2.582031 5.847656 -2.628906 5.921875 -2.671875 L 6.015625 -2.75 L 6.78125 -0.296875 C 6.125 0.0664062 5.378906 0.25 4.546875 0.25 C 3.972656 0.25 3.476562 0.148438 3.0625 -0.046875 C 2.65625 -0.242188 2.34375 -0.507812 2.125 -0.84375 C 1.914062 -1.1875 1.765625 -1.539062 1.671875 -1.90625 C 1.585938 -2.28125 1.546875 -2.679688 1.546875 -3.109375 L 1.546875 -6.484375 L 0.28125 -6.484375 L 0.28125 -8.796875 Z M 1.546875 -8.796875 "/></g></g></g><g fill="#ffffff" fill-opacity="1"><g transform="translate(171.451167, 262.855324)"><g><path d="M 2.984375 -3.671875 C 3.535156 -3.671875 4 -3.476562 4.375 -3.09375 C 4.757812 -2.707031 4.953125 -2.242188 4.953125 -1.703125 C 4.953125 -1.160156 4.757812 -0.695312 4.375 -0.3125 C 4 0.0625 3.535156 0.25 2.984375 0.25 C 2.441406 0.25 1.976562 0.0625 1.59375 -0.3125 C 1.21875 -0.695312 1.03125 -1.160156 1.03125 -1.703125 C 1.03125 -2.242188 1.21875 -2.707031 1.59375 -3.09375 C 1.976562 -3.476562 2.441406 -3.671875 2.984375 -3.671875 Z M 2.984375 -3.671875 "/></g></g></g><g fill="#ffffff" fill-opacity="1"><g transform="translate(176.580655, 262.855324)"><g/></g></g><g fill="#ffffff" fill-opacity="1"><g transform="translate(180.40626, 262.855324)"><g><path d="M 6.234375 -11.6875 C 5.773438 -11.6875 5.335938 -11.457031 4.921875 -11 C 4.503906 -10.550781 4.195312 -10.101562 4 -9.65625 L 3.703125 -8.984375 L 1.015625 -10.296875 C 1.046875 -10.410156 1.097656 -10.554688 1.171875 -10.734375 C 1.253906 -10.921875 1.445312 -11.25 1.75 -11.71875 C 2.050781 -12.195312 2.378906 -12.613281 2.734375 -12.96875 C 3.097656 -13.332031 3.585938 -13.660156 4.203125 -13.953125 C 4.828125 -14.253906 5.503906 -14.40625 6.234375 -14.40625 C 7.160156 -14.40625 7.96875 -14.285156 8.65625 -14.046875 C 9.34375 -13.816406 9.875 -13.523438 10.25 -13.171875 C 10.632812 -12.828125 10.941406 -12.414062 11.171875 -11.9375 C 11.410156 -11.46875 11.5625 -11.039062 11.625 -10.65625 C 11.6875 -10.269531 11.71875 -9.863281 11.71875 -9.4375 C 11.71875 -8.820312 11.546875 -8.171875 11.203125 -7.484375 C 10.859375 -6.804688 10.441406 -6.203125 9.953125 -5.671875 C 9.472656 -5.140625 8.984375 -4.648438 8.484375 -4.203125 C 7.992188 -3.765625 7.578125 -3.425781 7.234375 -3.1875 L 6.71875 -2.828125 L 11.96875 -2.828125 L 11.96875 0 L 0.9375 0 L 0.9375 -0.8125 C 1.132812 -0.96875 1.398438 -1.1875 1.734375 -1.46875 C 2.066406 -1.75 2.648438 -2.28125 3.484375 -3.0625 C 4.316406 -3.851562 5.050781 -4.59375 5.6875 -5.28125 C 6.332031 -5.976562 6.914062 -6.722656 7.4375 -7.515625 C 7.96875 -8.304688 8.234375 -8.945312 8.234375 -9.4375 C 8.234375 -9.632812 8.210938 -9.828125 8.171875 -10.015625 C 8.128906 -10.210938 8.050781 -10.453125 7.9375 -10.734375 C 7.820312 -11.015625 7.613281 -11.242188 7.3125 -11.421875 C 7.019531 -11.597656 6.660156 -11.6875 6.234375 -11.6875 Z M 6.234375 -11.6875 "/></g></g></g><g fill="#ffffff" fill-opacity="1"><g transform="translate(192.466899, 262.855324)"><g><path d="M 0.484375 -7.0625 C 0.484375 -9.394531 1.035156 -11.203125 2.140625 -12.484375 C 3.253906 -13.765625 4.625 -14.40625 6.25 -14.40625 C 7.875 -14.40625 9.238281 -13.765625 10.34375 -12.484375 C 11.445312 -11.203125 12 -9.394531 12 -7.0625 C 12 -5.800781 11.84375 -4.6875 11.53125 -3.71875 C 11.21875 -2.757812 10.789062 -1.992188 10.25 -1.421875 C 9.707031 -0.859375 9.097656 -0.4375 8.421875 -0.15625 C 7.753906 0.113281 7.023438 0.25 6.234375 0.25 C 5.453125 0.25 4.722656 0.113281 4.046875 -0.15625 C 3.378906 -0.4375 2.769531 -0.859375 2.21875 -1.421875 C 1.675781 -1.992188 1.25 -2.757812 0.9375 -3.71875 C 0.632812 -4.6875 0.484375 -5.800781 0.484375 -7.0625 Z M 3.734375 -7.0625 C 3.734375 -5.570312 3.953125 -4.453125 4.390625 -3.703125 C 4.828125 -2.953125 5.445312 -2.578125 6.25 -2.578125 C 7.03125 -2.578125 7.640625 -2.953125 8.078125 -3.703125 C 8.515625 -4.453125 8.734375 -5.570312 8.734375 -7.0625 C 8.734375 -8.5 8.507812 -9.609375 8.0625 -10.390625 C 7.625 -11.179688 7.015625 -11.578125 6.234375 -11.578125 C 5.460938 -11.578125 4.851562 -11.179688 4.40625 -10.390625 C 3.957031 -9.597656 3.734375 -8.488281 3.734375 -7.0625 Z M 3.734375 -7.0625 "/></g></g></g><g fill="#ffffff" fill-opacity="1"><g transform="translate(204.081466, 262.855324)"><g><path d="M 6.234375 -11.6875 C 5.773438 -11.6875 5.335938 -11.457031 4.921875 -11 C 4.503906 -10.550781 4.195312 -10.101562 4 -9.65625 L 3.703125 -8.984375 L 1.015625 -10.296875 C 1.046875 -10.410156 1.097656 -10.554688 1.171875 -10.734375 C 1.253906 -10.921875 1.445312 -11.25 1.75 -11.71875 C 2.050781 -12.195312 2.378906 -12.613281 2.734375 -12.96875 C 3.097656 -13.332031 3.585938 -13.660156 4.203125 -13.953125 C 4.828125 -14.253906 5.503906 -14.40625 6.234375 -14.40625 C 7.160156 -14.40625 7.96875 -14.285156 8.65625 -14.046875 C 9.34375 -13.816406 9.875 -13.523438 10.25 -13.171875 C 10.632812 -12.828125 10.941406 -12.414062 11.171875 -11.9375 C 11.410156 -11.46875 11.5625 -11.039062 11.625 -10.65625 C 11.6875 -10.269531 11.71875 -9.863281 11.71875 -9.4375 C 11.71875 -8.820312 11.546875 -8.171875 11.203125 -7.484375 C 10.859375 -6.804688 10.441406 -6.203125 9.953125 -5.671875 C 9.472656 -5.140625 8.984375 -4.648438 8.484375 -4.203125 C 7.992188 -3.765625 7.578125 -3.425781 7.234375 -3.1875 L 6.71875 -2.828125 L 11.96875 -2.828125 L 11.96875 0 L 0.9375 0 L 0.9375 -0.8125 C 1.132812 -0.96875 1.398438 -1.1875 1.734375 -1.46875 C 2.066406 -1.75 2.648438 -2.28125 3.484375 -3.0625 C 4.316406 -3.851562 5.050781 -4.59375 5.6875 -5.28125 C 6.332031 -5.976562 6.914062 -6.722656 7.4375 -7.515625 C 7.96875 -8.304688 8.234375 -8.945312 8.234375 -9.4375 C 8.234375 -9.632812 8.210938 -9.828125 8.171875 -10.015625 C 8.128906 -10.210938 8.050781 -10.453125 7.9375 -10.734375 C 7.820312 -11.015625 7.613281 -11.242188 7.3125 -11.421875 C 7.019531 -11.597656 6.660156 -11.6875 6.234375 -11.6875 Z M 6.234375 -11.6875 "/></g></g></g><g fill="#ffffff" fill-opacity="1"><g transform="translate(216.142102, 262.855324)"><g><path d="M 3.515625 -10.078125 L 0.984375 -11.3125 C 1.003906 -11.382812 1.035156 -11.492188 1.078125 -11.640625 C 1.128906 -11.785156 1.265625 -12.035156 1.484375 -12.390625 C 1.710938 -12.742188 1.984375 -13.054688 2.296875 -13.328125 C 2.609375 -13.609375 3.0625 -13.859375 3.65625 -14.078125 C 4.25 -14.296875 4.914062 -14.40625 5.65625 -14.40625 C 7.007812 -14.40625 8.125 -14.019531 9 -13.25 C 9.875 -12.476562 10.3125 -11.492188 10.3125 -10.296875 C 10.3125 -9.171875 9.894531 -8.285156 9.0625 -7.640625 C 10.257812 -6.898438 10.859375 -5.816406 10.859375 -4.390625 C 10.859375 -3.046875 10.363281 -1.9375 9.375 -1.0625 C 8.382812 -0.1875 7.128906 0.25 5.609375 0.25 C 4.796875 0.25 4.054688 0.128906 3.390625 -0.109375 C 2.734375 -0.347656 2.21875 -0.632812 1.84375 -0.96875 C 1.46875 -1.300781 1.15625 -1.640625 0.90625 -1.984375 C 0.664062 -2.328125 0.5 -2.617188 0.40625 -2.859375 L 0.296875 -3.21875 L 3.28125 -4.6875 C 3.28125 -4.625 3.285156 -4.546875 3.296875 -4.453125 C 3.316406 -4.359375 3.378906 -4.179688 3.484375 -3.921875 C 3.585938 -3.671875 3.710938 -3.453125 3.859375 -3.265625 C 4.003906 -3.078125 4.226562 -2.90625 4.53125 -2.75 C 4.84375 -2.59375 5.195312 -2.515625 5.59375 -2.515625 C 6.195312 -2.515625 6.6875 -2.679688 7.0625 -3.015625 C 7.445312 -3.347656 7.640625 -3.804688 7.640625 -4.390625 C 7.640625 -4.992188 7.441406 -5.488281 7.046875 -5.875 C 6.648438 -6.269531 6.164062 -6.46875 5.59375 -6.46875 L 4.96875 -6.359375 L 4.96875 -8.46875 L 5.671875 -8.46875 C 6.117188 -8.46875 6.515625 -8.640625 6.859375 -8.984375 C 7.203125 -9.328125 7.375 -9.753906 7.375 -10.265625 C 7.375 -10.703125 7.195312 -11.070312 6.84375 -11.375 C 6.5 -11.675781 6.09375 -11.828125 5.625 -11.828125 C 5.289062 -11.828125 4.988281 -11.765625 4.71875 -11.640625 C 4.457031 -11.515625 4.253906 -11.367188 4.109375 -11.203125 C 3.960938 -11.035156 3.84375 -10.863281 3.75 -10.6875 C 3.65625 -10.519531 3.59375 -10.378906 3.5625 -10.265625 Z M 3.515625 -10.078125 "/></g></g></g></svg>